<svg xmlns="http://www.w3.org/2000/svg" xmlns:xlink="http://www.w3.org/1999/xlink" width="1920" zoomAndPan="magnify" viewBox="0 0 1440 809.999993" height="1080" preserveAspectRatio="xMidYMid meet" version="1.0"><defs><g/><clipPath id="427afc227c"><path d="M 477.949219 112.558594 L 962.191406 112.558594 L 962.191406 596.800781 L 477.949219 596.800781 Z M 477.949219 112.558594 " clip-rule="nonzero"/></clipPath><clipPath id="c40805db9e"><path d="M 720.070312 112.558594 C 586.351562 112.558594 477.949219 220.957031 477.949219 354.679688 C 477.949219 488.398438 586.351562 596.800781 720.070312 596.800781 C 853.792969 596.800781 962.191406 488.398438 962.191406 354.679688 C 962.191406 220.957031 853.792969 112.558594 720.070312 112.558594 Z M 720.070312 112.558594 " clip-rule="nonzero"/></clipPath></defs><g clip-path="url(#427afc227c)"><g clip-path="url(#c40805db9e)"><path fill="#000000" d="M 477.949219 112.558594 L 962.191406 112.558594 L 962.191406 596.800781 L 477.949219 596.800781 Z M 477.949219 112.558594 " fill-opacity="1" fill-rule="nonzero"/></g></g><g fill="#ffffff" fill-opacity="1"><g transform="translate(580.078078, 502.79682)"><g><path d="M 258.003906 -117.226562 C 257.191406 -116.886719 256.785156 -116.71875 256.613281 -117.125 C 256.273438 -117.9375 255.933594 -118.75 255.832031 -120.140625 C 255.730469 -121.53125 255.796875 -122.511719 255.863281 -123.496094 C 256.847656 -123.425781 257.421875 -123.191406 257.59375 -122.785156 C 257.761719 -122.378906 258.101562 -121.566406 258.035156 -120.582031 C 257.96875 -119.597656 257.902344 -118.617188 257.664062 -118.039062 C 257.496094 -118.445312 257.730469 -119.023438 258.136719 -119.191406 C 258.542969 -119.363281 258.78125 -119.9375 258.613281 -120.34375 L 258.101562 -121.566406 C 259.152344 -122.480469 259.625 -123.632812 260.101562 -124.785156 C 260.574219 -125.9375 260.472656 -127.328125 259.960938 -128.546875 L 259.621094 -129.359375 C 259.792969 -128.953125 260.265625 -130.105469 260.636719 -132.648438 C 261.007812 -135.1875 261.617188 -138.304688 261.886719 -142.238281 C 262.152344 -146.167969 262.421875 -150.097656 262.929688 -154.605469 C 263.433594 -159.113281 263.871094 -162.636719 264.242188 -165.179688 L 264.914062 -175.007812 C 265.421875 -179.511719 265.585938 -184.832031 265.414062 -190.964844 C 265.242188 -197.101562 264.492188 -203.46875 263.574219 -210.246094 C 262.65625 -217.023438 260.921875 -223.460938 258.378906 -229.558594 C 257.191406 -232.402344 255.59375 -235.078125 253.765625 -237.179688 C 253.933594 -236.773438 253.359375 -237.011719 252.035156 -237.890625 C 250.714844 -238.769531 249.390625 -239.652344 248.070312 -240.53125 C 246.746094 -241.410156 245.425781 -242.292969 244.105469 -243.171875 C 242.78125 -244.050781 241.796875 -244.121094 241.390625 -243.949219 C 241.796875 -244.121094 241.222656 -244.355469 239.664062 -244.660156 C 238.105469 -244.964844 236.546875 -245.269531 234.410156 -245.808594 C 232.277344 -246.351562 230.308594 -246.484375 227.9375 -246.449219 C 225.566406 -246.414062 223.769531 -246.140625 222.550781 -245.632812 L 222.144531 -245.464844 C 220.753906 -245.359375 219.367188 -245.257812 218.554688 -244.917969 C 217.738281 -244.578125 216.925781 -244.238281 216.519531 -244.070312 L 214.894531 -243.390625 L 209.609375 -241.1875 C 208.390625 -240.675781 206.933594 -239.59375 205.476562 -238.507812 C 204.019531 -237.421875 202.902344 -235.523438 201.957031 -233.21875 C 202.125 -232.8125 202.296875 -232.40625 202.871094 -232.167969 C 203.039062 -231.761719 202.566406 -230.609375 201.449219 -228.710938 C 200.332031 -226.8125 199.386719 -224.507812 198.03125 -222.035156 L 193.96875 -214.609375 C 192.617188 -212.136719 191.5 -210.238281 190.617188 -208.914062 C 189.90625 -207.1875 188.554688 -204.710938 186.964844 -201.660156 C 185.371094 -198.613281 183.542969 -194.984375 181.71875 -191.359375 C 179.890625 -187.730469 178.230469 -183.699219 176.574219 -179.664062 C 174.914062 -175.628906 174.070312 -171.9375 173.867188 -168.988281 C 173.699219 -169.394531 173.699219 -169.394531 173.699219 -169.394531 C 173.699219 -169.394531 173.53125 -169.800781 173.359375 -170.207031 C 173.394531 -167.835938 173.261719 -165.871094 172.957031 -164.3125 C 173.058594 -162.921875 172.585938 -161.769531 172.113281 -160.617188 C 171.636719 -159.464844 170.996094 -158.71875 170.589844 -158.550781 C 169.539062 -157.632812 168.421875 -155.734375 167.238281 -152.855469 C 166.050781 -149.972656 164.632812 -146.515625 163.210938 -143.058594 C 161.789062 -139.601562 160.199219 -136.550781 159.015625 -133.671875 C 157.828125 -130.789062 156.542969 -129.296875 155.324219 -128.789062 C 154.917969 -128.621094 154.511719 -128.449219 153.933594 -128.6875 C 154.914062 -134.347656 155.316406 -140.242188 155.550781 -146.546875 C 155.785156 -152.847656 155.609375 -158.980469 155.4375 -165.113281 C 154.996094 -167.316406 155.027344 -170.671875 155.941406 -175.347656 C 156.851562 -180.023438 157.59375 -185.109375 157.996094 -191.003906 C 158.398438 -196.902344 158.226562 -203.035156 157.714844 -209.980469 C 157.203125 -216.925781 155.300781 -223.769531 152.417969 -230.679688 C 152.347656 -229.699219 152.28125 -228.714844 152.621094 -227.902344 C 152.960938 -227.089844 152.894531 -226.105469 152.828125 -225.125 C 152.25 -225.363281 151.84375 -225.191406 151.03125 -224.851562 C 151.265625 -225.429688 150.929688 -226.242188 150.417969 -227.460938 C 149.910156 -228.679688 149.402344 -229.902344 148.890625 -231.121094 L 148.214844 -232.746094 C 148.109375 -234.136719 147.773438 -234.949219 147.433594 -235.761719 C 147.09375 -236.574219 146.753906 -237.386719 146.246094 -238.605469 L 145.566406 -240.234375 C 145.328125 -239.65625 145.5 -239.25 145.667969 -238.84375 C 145.09375 -239.082031 144.175781 -240.128906 142.753906 -242.398438 C 141.328125 -244.667969 140.242188 -246.125 140.074219 -246.53125 C 139.734375 -247.347656 139.394531 -248.160156 139.632812 -248.734375 C 139.222656 -248.566406 139.222656 -248.566406 139.054688 -248.972656 L 138.714844 -249.785156 C 138.480469 -249.207031 138.410156 -248.226562 138.515625 -246.835938 L 137.191406 -247.71875 C 137.023438 -248.125 136.851562 -248.53125 136.683594 -248.9375 C 136.851562 -248.53125 136.851562 -248.53125 136.105469 -249.171875 C 135.359375 -249.816406 134.207031 -250.289062 132.480469 -251 C 130.75 -251.710938 128.617188 -252.253906 126.074219 -252.625 C 123.53125 -252.996094 120.515625 -252.214844 116.859375 -250.6875 C 109.132812 -247.464844 103.070312 -242.546875 98.671875 -235.9375 C 94.269531 -229.324219 89.632812 -222.140625 84.585938 -214.78125 C 81.035156 -206.140625 77.953125 -198.648438 75.179688 -192.71875 C 72.40625 -186.785156 69.15625 -179.703125 65.265625 -171.871094 C 65.5 -172.449219 65.332031 -172.855469 65.160156 -173.261719 C 64.992188 -173.667969 64.820312 -174.074219 65.058594 -174.652344 C 64.886719 -180.785156 64.375 -187.730469 63.929688 -195.660156 C 63.484375 -203.589844 63.105469 -212.5 62.386719 -222.226562 C 62.117188 -224.019531 61.976562 -227.78125 61.738281 -232.933594 C 61.496094 -238.082031 60.445312 -242.894531 58.578125 -247.367188 C 58.238281 -248.179688 57.898438 -248.992188 57.558594 -249.804688 C 57.21875 -250.617188 56.878906 -251.429688 56.542969 -252.242188 C 56.371094 -252.652344 56.203125 -253.058594 55.863281 -253.871094 C 55.523438 -254.683594 55.183594 -255.496094 54.84375 -256.308594 L 53.148438 -260.375 L 51.789062 -263.625 C 51.621094 -264.035156 51.28125 -264.847656 50.773438 -266.066406 C 50.265625 -267.285156 49.179688 -268.742188 48.09375 -270.199219 C 47.007812 -271.65625 45.515625 -272.941406 44.023438 -274.226562 C 42.53125 -275.515625 40.804688 -276.226562 39.074219 -276.9375 L 38.90625 -277.34375 C 38.398438 -278.5625 36.90625 -279.847656 34.429688 -281.203125 C 31.957031 -282.558594 30.058594 -283.675781 28.328125 -284.382812 C 25.449219 -285.570312 22.566406 -286.753906 19.855469 -287.53125 C 17.316406 -287.902344 14.773438 -288.273438 12.230469 -288.644531 C 9.691406 -289.015625 7.894531 -288.742188 6.269531 -288.066406 C 2.609375 -286.539062 -0.132812 -283.960938 -1.726562 -280.910156 C -3.316406 -277.859375 -4.398438 -273.589844 -4.96875 -268.101562 C -5.542969 -262.609375 -6.011719 -255.730469 -5.976562 -247.632812 C -5.9375 -239.535156 -5.796875 -230.046875 -5.550781 -219.167969 C -5.203125 -201.175781 -5.089844 -182.605469 -4.808594 -163.628906 L -3.960938 -106.703125 C -4.125 -101.382812 -4.359375 -95.082031 -4.660156 -87.792969 C -4.488281 -81.660156 -4.210938 -74.140625 -3.832031 -65.226562 C -3.457031 -56.316406 -2.738281 -46.589844 -1.683594 -36.054688 C -1.578125 -34.664062 -1.542969 -32.292969 -1.339844 -29.511719 C -1.132812 -26.734375 -0.929688 -23.957031 -0.554688 -20.773438 C -0.179688 -17.585938 0.195312 -14.402344 0.398438 -11.621094 C 0.605469 -8.84375 1.046875 -6.640625 1.554688 -5.421875 C 2.234375 -3.796875 3.726562 -2.507812 6.265625 -2.136719 C 8.808594 -1.765625 10.945312 -1.226562 12.671875 -0.515625 C 13.078125 -0.683594 13.484375 -0.855469 13.722656 -1.429688 C 14.128906 -1.601562 14.707031 -1.363281 14.875 -0.957031 C 15.042969 -0.550781 15.214844 -0.144531 15.789062 0.09375 C 16.367188 0.328125 16.367188 0.328125 16.199219 -0.078125 L 16.027344 -0.484375 C 18.910156 0.699219 21.042969 1.242188 22.433594 1.140625 C 23.820312 1.035156 25.449219 0.359375 27.480469 -0.492188 C 29.582031 -2.320312 31.039062 -3.40625 31.445312 -3.578125 C 31.851562 -3.746094 32.257812 -3.914062 32.664062 -4.085938 C 33.070312 -4.253906 33.714844 -5 34.59375 -6.324219 C 35.472656 -7.644531 37.234375 -10.289062 39.875 -14.253906 C 40.449219 -14.019531 41.027344 -13.78125 41.601562 -13.546875 C 42.179688 -13.308594 42.757812 -13.070312 43.332031 -12.835938 C 43.429688 -17.171875 43.632812 -20.121094 43.9375 -21.679688 C 44.242188 -23.238281 44.714844 -24.390625 45.359375 -25.136719 L 48.40625 -29.273438 C 49.929688 -31.339844 51.925781 -34.558594 54.398438 -38.933594 C 54.972656 -38.695312 55.144531 -38.289062 55.144531 -38.289062 C 55.144531 -38.289062 55.3125 -37.882812 55.890625 -37.644531 C 56.058594 -37.238281 56.058594 -37.238281 56.464844 -37.410156 C 56.703125 -37.984375 57.109375 -38.15625 57.515625 -38.324219 C 57.921875 -38.496094 58.328125 -38.664062 58.566406 -39.242188 C 59.378906 -39.578125 60.429688 -40.496094 61.546875 -42.394531 C 62.664062 -44.292969 63.777344 -46.191406 64.726562 -48.496094 C 65.675781 -50.800781 66.621094 -53.105469 66.992188 -55.644531 C 67.363281 -58.1875 67.328125 -60.558594 66.480469 -62.59375 L 66.140625 -63.40625 L 66.851562 -65.132812 C 67.625 -73.570312 67.824219 -82.246094 67.445312 -91.160156 C 67.066406 -100.070312 67.738281 -109.898438 69.867188 -120.808594 C 69.632812 -120.234375 70.105469 -121.386719 70.882812 -124.097656 C 71.660156 -126.808594 72.503906 -130.503906 73.585938 -134.773438 C 74.667969 -139.042969 75.582031 -143.71875 76.5625 -149.378906 C 77.539062 -155.039062 78.113281 -160.527344 78.28125 -165.847656 C 79.429688 -171.101562 81.558594 -176.289062 85.082031 -181.574219 C 88.601562 -186.863281 90.496094 -191.472656 91.003906 -195.980469 L 91.171875 -195.574219 C 93.984375 -199.132812 96.792969 -202.691406 99.195312 -206.082031 C 101.601562 -209.472656 104.003906 -212.863281 106.816406 -216.421875 C 106.984375 -216.015625 106.984375 -216.015625 107.390625 -216.1875 C 107.257812 -214.21875 107.121094 -212.253906 107.15625 -209.882812 C 107.191406 -207.511719 107.058594 -205.546875 106.925781 -203.582031 C 106.855469 -202.597656 106.316406 -200.460938 105.707031 -197.34375 C 105.101562 -194.226562 104.660156 -190.703125 103.984375 -186.601562 C 103.3125 -182.5 102.804688 -177.992188 102.707031 -173.65625 C 102.605469 -169.320312 102.914062 -165.152344 103.628906 -161.152344 C 102.582031 -154.511719 102.113281 -147.632812 102.046875 -140.921875 C 101.984375 -134.214844 102.089844 -127.097656 102.601562 -120.152344 C 102.875 -118.355469 102.671875 -115.40625 102.574219 -111.070312 C 102.476562 -106.734375 102.140625 -101.820312 101.972656 -96.5 C 101.804688 -91.179688 102.214844 -85.621094 102.796875 -79.65625 C 103.375 -73.695312 104.769531 -68.070312 106.972656 -62.785156 C 107.484375 -61.566406 108.566406 -60.109375 109.824219 -58.246094 C 110.570312 -57.601562 111.484375 -56.554688 112.570312 -55.097656 C 113.65625 -53.640625 114.738281 -52.183594 115.824219 -50.726562 C 116.910156 -49.269531 118.230469 -48.390625 119.554688 -47.511719 C 120.875 -46.628906 121.859375 -46.5625 123.078125 -47.070312 L 122.945312 -45.105469 C 122.367188 -45.34375 122.367188 -45.34375 122.367188 -45.34375 C 122.367188 -45.34375 122.367188 -45.34375 121.792969 -45.582031 C 121.554688 -45.003906 121.722656 -44.597656 121.894531 -44.191406 C 122.234375 -43.378906 123.386719 -42.90625 125.183594 -43.175781 C 126.976562 -43.449219 128.773438 -43.722656 130.804688 -44.570312 C 132.839844 -45.417969 134.871094 -46.265625 136.902344 -47.113281 L 141.375 -48.980469 C 140.96875 -48.8125 141.207031 -49.386719 142.257812 -50.300781 C 143.304688 -51.21875 144.355469 -52.132812 145.234375 -53.457031 C 146.117188 -54.777344 147.167969 -55.691406 148.214844 -56.609375 L 149.503906 -58.101562 L 150.316406 -58.441406 C 150.214844 -59.828125 150.6875 -60.980469 151.90625 -61.492188 C 153.125 -62 153.769531 -62.746094 154.414062 -63.492188 C 155.328125 -62.441406 156.242188 -61.390625 156.988281 -60.75 C 157.734375 -60.105469 158.3125 -59.867188 158.71875 -60.039062 C 158.140625 -60.273438 157.566406 -60.511719 156.820312 -61.15625 C 156.074219 -61.796875 155.90625 -62.203125 155.734375 -62.609375 C 155.566406 -63.015625 155.800781 -63.59375 156.039062 -64.171875 C 156.917969 -65.492188 157.394531 -66.644531 157.628906 -67.21875 C 157.867188 -67.796875 158.339844 -68.949219 158.882812 -71.085938 L 161.046875 -79.625 C 161.890625 -83.320312 163.277344 -89.148438 165.203125 -97.113281 C 165.574219 -99.652344 165.671875 -103.992188 165.261719 -109.546875 C 164.851562 -115.105469 166.171875 -119.953125 169.796875 -123.851562 C 169.21875 -124.085938 168.8125 -123.917969 168.8125 -123.917969 C 168.8125 -123.917969 168.8125 -123.917969 168.644531 -124.324219 L 169.050781 -124.492188 C 169.457031 -124.664062 169.863281 -124.832031 170.097656 -125.410156 C 170.335938 -125.984375 170.742188 -126.15625 171.148438 -126.324219 L 171.960938 -126.664062 C 172.367188 -126.835938 172.605469 -127.410156 172.265625 -128.222656 L 171.925781 -129.035156 C 171.757812 -129.441406 172.402344 -130.1875 174.027344 -130.867188 C 173.449219 -131.105469 173.28125 -131.511719 172.941406 -132.324219 C 173.109375 -131.917969 173.109375 -131.917969 173.519531 -132.085938 C 175.648438 -137.273438 177.375 -142.289062 179.101562 -147.304688 C 180.824219 -152.320312 183.261719 -159.066406 186.578125 -167.132812 C 186.8125 -167.707031 187.050781 -168.285156 187.523438 -169.4375 C 188 -170.589844 188.300781 -172.148438 188.605469 -173.707031 C 188.910156 -175.265625 189.214844 -176.824219 190.09375 -178.148438 C 190.976562 -179.46875 191.617188 -180.214844 192.023438 -180.386719 C 191.789062 -179.808594 191.617188 -180.214844 192.09375 -181.367188 C 192.566406 -182.519531 193.039062 -183.671875 193.34375 -185.230469 C 193.648438 -186.789062 194.121094 -187.941406 194.59375 -189.09375 C 195.070312 -190.246094 195.304688 -190.824219 195.710938 -190.992188 L 196.289062 -190.757812 C 195.476562 -190.417969 195.777344 -191.976562 197.4375 -196.007812 C 199.09375 -200.042969 201.804688 -204.992188 205.5625 -210.855469 C 205.796875 -211.433594 206.375 -211.195312 207.527344 -210.722656 C 208.679688 -210.246094 209.59375 -209.199219 210.101562 -207.976562 L 210.441406 -207.164062 C 211.433594 -195.644531 211.238281 -181.242188 210.09375 -164.539062 C 208.953125 -147.832031 208.589844 -128.109375 209.011719 -105.371094 C 208.773438 -104.796875 208.878906 -103.40625 208.742188 -101.441406 C 208.609375 -99.476562 208.472656 -97.511719 208.746094 -95.714844 C 209.019531 -93.917969 209.289062 -92.125 209.394531 -90.734375 L 209.429688 -88.363281 C 207.804688 -81.957031 207.910156 -74.839844 209.746094 -67.015625 C 211.582031 -59.1875 213.992188 -51.125 217.214844 -43.398438 C 220.4375 -35.675781 225.082031 -31.410156 231.148438 -30.601562 C 237.214844 -29.789062 243.179688 -30.371094 249.277344 -32.914062 C 253.984375 -35.355469 257.882812 -37.460938 261.199219 -39.800781 C 264.519531 -42.140625 267.90625 -45.464844 271.191406 -50.175781 C 272.714844 -52.242188 274.476562 -54.886719 276.300781 -58.515625 C 278.128906 -62.140625 281.140625 -68.648438 284.933594 -77.867188 C 284.289062 -77.121094 283.644531 -76.375 283.171875 -75.222656 L 282.59375 -75.460938 C 282.832031 -76.035156 283.070312 -76.613281 282.730469 -77.425781 C 282.390625 -78.238281 282.628906 -78.816406 282.863281 -79.390625 C 283.035156 -78.984375 283.203125 -78.578125 283.78125 -78.34375 C 285 -78.851562 285.8125 -79.191406 286.050781 -79.765625 C 285.878906 -80.171875 285.304688 -80.410156 284.152344 -80.882812 C 284.386719 -81.460938 285.03125 -82.207031 285.910156 -83.527344 C 286.792969 -84.851562 286.6875 -86.238281 285.839844 -88.273438 L 285.265625 -88.507812 C 283.402344 -87.253906 281.945312 -86.167969 280.894531 -85.253906 C 279.203125 -83.589844 277.847656 -81.117188 277.070312 -78.40625 C 276.292969 -75.695312 275.109375 -72.8125 273.921875 -69.933594 C 272.738281 -67.050781 271.386719 -64.578125 269.625 -61.933594 C 267.863281 -59.289062 265.765625 -57.457031 263.324219 -56.441406 C 259.667969 -54.914062 257.058594 -54.300781 256.074219 -54.367188 C 255.09375 -54.4375 253.769531 -55.316406 252.277344 -56.601562 L 252.957031 -54.976562 C 251.566406 -54.875 250.585938 -54.941406 250.007812 -55.179688 C 250.484375 -56.332031 250.617188 -58.296875 250.582031 -60.667969 C 252.480469 -59.550781 253.800781 -58.671875 254.378906 -58.433594 C 254.953125 -58.195312 256.75 -58.46875 259.765625 -59.25 C 257.222656 -59.621094 255.089844 -60.164062 253.359375 -60.871094 C 251.632812 -61.582031 250.546875 -63.039062 249.699219 -65.074219 C 249.359375 -65.886719 249.019531 -66.699219 249.257812 -67.273438 L 248.445312 -66.933594 C 248.035156 -66.765625 248.035156 -66.765625 247.867188 -67.171875 C 247.699219 -67.578125 247.933594 -68.15625 248.171875 -68.730469 C 248.746094 -68.496094 249.324219 -68.257812 249.898438 -68.019531 C 249.730469 -68.425781 249.5625 -68.832031 249.5625 -68.832031 C 249.5625 -68.832031 249.5625 -68.832031 249.390625 -69.238281 C 250.304688 -68.191406 251.050781 -67.546875 251.222656 -67.140625 C 251.457031 -67.714844 251.289062 -68.125 251.121094 -68.53125 C 250.542969 -68.765625 249.96875 -69.003906 249.796875 -69.410156 C 249.628906 -69.816406 249.695312 -70.800781 250 -72.359375 C 250.304688 -73.917969 250.199219 -75.304688 250.097656 -76.695312 C 249.859375 -76.121094 249.792969 -75.136719 249.726562 -74.152344 C 249.660156 -73.171875 249.59375 -72.1875 249.355469 -71.613281 C 249.117188 -71.035156 248.710938 -70.867188 248.542969 -71.273438 C 248.371094 -71.679688 248.203125 -72.085938 248.035156 -72.492188 C 247.523438 -73.710938 247.015625 -74.929688 246.914062 -76.320312 C 246.8125 -77.710938 246.878906 -78.691406 247.113281 -79.269531 L 246.265625 -81.300781 C 245.757812 -82.519531 245.484375 -84.316406 245.28125 -87.09375 C 245.074219 -89.875 244.632812 -92.078125 243.785156 -94.109375 C 243.617188 -94.515625 243.445312 -94.921875 243.277344 -95.328125 C 243.105469 -95.734375 242.9375 -96.140625 242.765625 -96.546875 C 242.429688 -97.359375 242.664062 -97.9375 243.308594 -98.683594 C 243.953125 -99.429688 244.019531 -100.410156 243.339844 -102.039062 C 244.730469 -102.140625 246.117188 -102.242188 247.675781 -101.9375 C 247.609375 -100.957031 247.542969 -99.972656 247.644531 -98.585938 C 247.746094 -97.195312 247.917969 -96.789062 247.746094 -97.195312 L 248.257812 -95.976562 L 248.597656 -95.164062 L 248.9375 -94.347656 C 249.273438 -93.535156 249.207031 -92.554688 248.15625 -91.636719 C 247.109375 -90.722656 247.550781 -88.519531 249.078125 -84.859375 C 249.585938 -83.640625 249.925781 -82.828125 250.5 -82.589844 C 251.011719 -81.371094 250.941406 -80.390625 249.722656 -79.878906 C 250.300781 -79.644531 250.875 -79.40625 251.453125 -79.167969 C 251.179688 -80.964844 251.144531 -83.335938 251.347656 -86.285156 C 251.546875 -89.234375 251.683594 -91.199219 251.511719 -91.605469 C 250.9375 -91.84375 250.53125 -91.671875 250.125 -91.503906 C 250.359375 -92.078125 250.597656 -92.65625 250.832031 -93.230469 C 251.070312 -93.808594 250.902344 -94.214844 250.730469 -94.621094 C 250.15625 -94.859375 249.578125 -95.09375 249.410156 -95.5 C 249.238281 -95.90625 249.476562 -96.484375 250.527344 -97.398438 L 251.679688 -96.925781 C 252.085938 -97.097656 252.320312 -97.671875 252.152344 -98.078125 Z M 254.445312 -120.039062 C 253.867188 -120.273438 253.460938 -120.105469 253.460938 -120.105469 C 253.460938 -120.105469 253.054688 -119.933594 252.476562 -120.171875 C 252.714844 -120.75 253.019531 -122.308594 253.558594 -124.441406 C 253.964844 -124.613281 254.375 -124.78125 254.949219 -124.542969 C 254.238281 -122.816406 254.339844 -121.425781 255.257812 -120.378906 C 256.171875 -119.328125 256.273438 -117.9375 255.5625 -116.210938 L 254.410156 -116.683594 L 253.734375 -118.308594 C 253.5625 -118.714844 253.800781 -119.292969 254.207031 -119.460938 Z M 243.878906 -109.898438 C 244.214844 -109.085938 244.726562 -107.867188 245.640625 -106.816406 C 246.558594 -105.765625 247.300781 -105.125 247.878906 -104.886719 C 247.640625 -104.3125 247.40625 -103.734375 247.167969 -103.160156 C 246.929688 -102.582031 246.695312 -102.007812 246.289062 -101.835938 C 245.882812 -101.667969 245.710938 -102.074219 245.542969 -102.480469 C 244.964844 -102.714844 244.457031 -103.9375 243.609375 -105.96875 C 243.4375 -106.375 243.101562 -107.1875 243.167969 -108.171875 C 243.234375 -109.152344 243.472656 -109.730469 244.046875 -109.492188 Z M 245.976562 -111.730469 C 244.996094 -111.796875 244.417969 -112.035156 244.078125 -112.847656 C 243.738281 -113.660156 243.398438 -114.472656 243.0625 -115.285156 C 242.722656 -116.101562 242.382812 -116.914062 242.449219 -117.894531 C 243.027344 -117.660156 244.007812 -117.589844 245.398438 -117.695312 C 245.332031 -116.710938 245.09375 -116.136719 244.855469 -115.558594 C 244.621094 -114.984375 244.789062 -114.578125 244.960938 -114.167969 C 245.128906 -113.761719 245.296875 -113.355469 245.875 -113.121094 C 246.042969 -112.714844 246.042969 -112.714844 246.042969 -112.714844 C 246.042969 -112.714844 246.042969 -112.714844 246.214844 -112.308594 Z M 255.523438 -130.035156 C 255.453125 -129.050781 255.792969 -128.238281 256.132812 -127.425781 C 256.472656 -126.613281 256.234375 -126.035156 255.015625 -125.527344 C 254.441406 -125.765625 254.269531 -126.171875 254.101562 -126.578125 C 253.929688 -126.984375 253.761719 -127.390625 253.828125 -128.375 C 253.894531 -129.355469 254.300781 -129.527344 254.878906 -129.289062 Z M 254.214844 -162.902344 C 254.148438 -161.921875 254.082031 -160.9375 254.421875 -160.125 C 254.757812 -159.3125 254.691406 -158.328125 254.792969 -156.9375 C 254.21875 -157.175781 254.046875 -157.582031 253.710938 -158.394531 C 253.371094 -159.207031 253.4375 -160.191406 253.910156 -161.34375 C 254.148438 -161.921875 254.382812 -162.496094 254.621094 -163.074219 Z M 246.03125 -135.621094 C 244.640625 -135.519531 243.660156 -135.585938 243.488281 -135.992188 L 243.625 -137.957031 C 244.539062 -136.90625 245.285156 -136.261719 246.03125 -135.621094 Z M 244.765625 -154.664062 C 245.34375 -154.425781 245.511719 -154.019531 245.679688 -153.613281 C 246.019531 -152.800781 245.785156 -152.222656 244.972656 -151.882812 C 244.632812 -152.699219 244.699219 -153.679688 244.597656 -155.070312 Z M 243.363281 -122.574219 C 243.9375 -122.335938 244.34375 -122.503906 244.75 -122.675781 C 245.15625 -122.84375 245.5625 -123.015625 246.140625 -122.777344 L 245.667969 -121.625 L 243.9375 -122.335938 Z M 283.230469 -87.660156 C 283.636719 -87.828125 284.042969 -88 284.453125 -88.167969 C 284.859375 -88.339844 285.265625 -88.507812 285.671875 -88.679688 C 285.5 -89.085938 285.5 -89.085938 285.5 -89.085938 C 285.5 -89.085938 285.90625 -89.253906 286.957031 -90.167969 C 286.382812 -90.40625 285.570312 -90.066406 284.347656 -89.558594 C 283.128906 -89.050781 282.484375 -88.304688 282.65625 -87.898438 Z M 283.230469 -87.660156 "/></g></g></g></svg>