<?xml version="1.0" encoding="UTF-8" standalone="no"?>
<!DOCTYPE svg PUBLIC "-//W3C//DTD SVG 1.1//EN" "http://www.w3.org/Graphics/SVG/1.1/DTD/svg11.dtd">
<svg xmlns="http://www.w3.org/2000/svg" version="1.1" viewBox="0.00 0.00 1024.00 1024.00">
<g stroke-width="2.00" fill="none" stroke-linecap="butt">
<path stroke="#f05f1a" vector-effect="non-scaling-stroke" d="
  M 366.58 358.96
  C 366.49 358.82 366.66 358.45 367.11 357.84
  C 367.53 357.27 367.38 356.47 366.78 356.09
  L 339.53 338.88"
/>
<path stroke="#1f84c4" vector-effect="non-scaling-stroke" d="
  M 682.22 337.43
  C 676.33 343.10 670.18 348.32 663.78 353.09
  C 661.73 354.62 659.50 355.67 657.25 356.87"
/>
</g>
<path fill="#49a234" d="
  M 514.27 287.27
  C 511.44 286.71 507.71 289.38 504.61 291.38
  C 502.14 292.97 498.88 294.04 495.63 294.03
  C 476.60 293.95 457.25 294.62 438.28 293.45
  C 437.69 293.41 437.63 293.21 438.09 292.84
  C 438.46 292.54 438.96 292.21 439.57 291.86
  C 461.57 279.15 483.83 266.90 505.99 254.48
  C 508.40 253.13 510.40 252.11 511.97 251.44
  C 512.28 251.31 512.59 251.28 512.92 251.35
  C 515.35 251.88 517.31 252.56 518.78 253.41
  C 535.85 263.27 553.08 272.82 570.49 282.07
  C 572.16 282.96 573.77 283.97 575.31 285.11
  C 575.61 285.33 575.58 285.48 575.21 285.56
  C 567.39 287.27 559.68 289.32 552.07 291.72
  C 548.52 292.84 546.87 295.87 542.75 295.43
  C 540.12 295.16 538.77 295.02 538.68 295.02
  C 532.90 294.91 527.42 293.50 522.25 290.77
  C 518.37 288.72 515.71 287.56 514.27 287.27
  Z"
/>
<path fill="#f58b11" d="
  M 366.58 358.96
  C 366.49 358.82 366.66 358.45 367.11 357.84
  C 367.53 357.27 367.38 356.47 366.78 356.09
  L 339.53 338.88
  C 340.16 338.45 340.92 338.01 341.80 337.56
  C 359.44 328.60 377.02 319.52 394.54 310.33
  C 396.05 309.54 397.91 309.14 400.12 309.14
  C 429.00 309.14 457.88 309.18 486.75 309.27
  C 495.32 309.29 504.24 308.47 512.75 309.42
  C 513.09 309.46 513.23 309.88 512.97 310.11
  C 512.30 310.70 511.54 311.25 510.71 311.74
  C 499.04 318.65 487.16 325.18 475.07 331.34
  C 473.06 332.36 471.33 332.72 468.91 332.73
  C 453.44 332.77 437.97 332.87 422.50 333.04
  C 419.23 333.07 416.03 333.13 412.98 334.41
  C 409.23 336.00 405.38 338.56 402.29 340.11
  C 390.16 346.19 378.26 352.47 366.58 358.96
  Z"
/>
<path fill="#1391d3" d="
  M 682.22 337.43
  C 676.33 343.10 670.18 348.32 663.78 353.09
  C 661.73 354.62 659.50 355.67 657.25 356.87
  C 627.25 342.35 597.42 327.39 567.77 311.99
  C 567.16 311.67 566.80 311.37 566.70 311.10
  C 566.52 310.61 566.69 310.36 567.22 310.36
  C 587.87 310.43 608.22 310.37 628.25 310.20
  C 629.11 310.19 630.59 310.73 632.68 311.82
  C 648.57 320.07 665.08 328.61 682.22 337.43
  Z"
/>
<path fill="#2b76b5" d="
  M 682.22 337.43
  C 684.24 338.56 685.72 340.21 686.65 342.40
  C 687.24 343.80 687.55 345.90 687.56 348.71
  C 687.65 368.90 687.62 389.08 687.47 409.25
  C 687.45 411.38 687.23 413.01 685.49 414.50
  C 683.46 416.24 681.67 417.53 680.13 418.38
  C 655.24 432.08 630.10 445.28 604.69 457.99
  C 602.08 459.30 599.67 460.71 597.45 462.22
  C 597.11 462.45 596.90 462.83 596.89 463.24
  C 596.59 474.16 596.50 484.83 596.62 495.24
  C 596.67 499.55 599.17 501.46 603.40 503.77
  C 616.99 511.17 630.58 518.41 644.17 525.50
  C 645.03 525.95 645.56 526.84 645.57 527.81
  L 645.60 556.25
  C 645.61 557.03 645.26 557.24 644.57 556.88
  C 624.92 546.71 605.38 536.01 585.62 525.72
  C 580.67 523.14 566.81 517.37 566.79 510.75
  C 566.74 491.26 566.75 471.77 566.83 452.28
  C 566.85 446.53 566.65 443.26 571.11 440.13
  C 573.64 438.34 576.29 436.75 579.05 435.34
  C 603.28 422.98 627.39 410.40 651.38 397.59
  C 655.00 395.66 659.03 393.53 659.16 389.25
  C 659.57 374.42 659.67 364.59 659.46 359.74
  C 659.43 359.00 658.69 358.04 657.25 356.87
  C 659.50 355.67 661.73 354.62 663.78 353.09
  C 670.18 348.32 676.33 343.10 682.22 337.43
  Z"
/>
<path fill="#eb3323" d="
  M 339.53 338.88
  L 366.78 356.09
  C 367.38 356.47 367.53 357.27 367.11 357.84
  C 366.66 358.45 366.49 358.82 366.58 358.96
  C 366.30 368.77 366.33 378.11 366.66 387.00
  C 366.87 392.75 369.14 394.41 373.83 396.91
  C 399.76 410.75 425.72 424.54 451.71 438.27
  C 456.31 440.70 459.21 442.69 459.26 448.00
  C 459.47 468.92 459.55 489.84 459.51 510.76
  C 459.50 514.81 452.98 519.41 448.71 521.69
  C 428.60 532.42 408.48 543.16 388.36 553.90
  C 386.17 555.07 383.93 556.13 381.64 557.10
  C 381.06 557.35 380.67 557.46 380.47 557.45
  C 379.83 557.42 379.33 556.89 379.34 556.25
  C 379.46 522.71 379.58 489.38 379.70 456.25
  C 379.71 455.71 379.72 455.39 379.75 455.28
  C 379.95 454.49 380.43 454.25 381.18 454.58
  C 389.29 458.11 397.23 461.93 404.99 466.02
  C 407.70 467.45 409.07 469.77 409.11 472.99
  C 409.26 484.58 409.32 496.17 409.30 507.75
  C 409.30 508.20 409.39 508.53 409.57 508.72
  C 409.82 508.99 410.23 509.06 410.57 508.88
  C 415.63 506.31 420.44 503.44 424.99 500.26
  C 427.11 498.78 427.63 497.68 427.65 494.97
  C 427.70 485.98 427.72 476.98 427.72 467.99
  C 427.72 464.15 426.22 461.40 423.22 459.75
  C 418.95 457.40 414.64 455.14 410.28 452.95
  C 387.72 441.67 365.67 429.54 343.22 418.09
  C 338.05 415.46 336.93 411.87 336.96 405.97
  C 337.06 385.72 337.23 365.48 337.48 345.26
  C 337.51 342.65 337.19 340.18 339.53 338.88
  Z"
/>
<path fill="#191718" d="
  M 430.43 565.28
  C 442.62 572.01 455.16 577.88 467.53 584.23
  C 468.93 584.95 470.32 585.43 471.69 585.68
  C 472.43 585.81 473.10 585.25 473.10 584.50
  L 473.21 435.10
  C 473.21 434.36 472.87 433.67 472.28 433.24
  C 470.77 432.13 469.19 431.12 467.54 430.23
  C 442.57 416.80 417.53 403.51 392.42 390.36
  C 390.19 389.19 388.06 387.98 386.02 386.73
  C 385.43 386.37 385.06 385.74 385.02 385.04
  C 384.72 379.51 384.56 373.84 384.53 368.02
  C 384.52 366.41 384.83 364.92 385.46 363.54
  C 387.44 359.19 396.94 354.25 401.31 356.62
  C 423.91 368.88 449.74 382.56 478.81 397.66
  C 487.78 402.31 495.26 406.08 501.27 408.96
  C 502.34 409.47 503.35 410.51 504.29 412.08
  C 505.97 414.88 505.91 418.54 505.92 421.75
  C 506.03 486.00 506.06 550.25 505.99 614.50
  C 505.98 619.53 505.89 624.73 505.72 630.11
  C 505.69 631.04 505.24 631.91 504.50 632.47
  L 499.05 636.59
  C 498.16 637.27 496.96 637.40 495.94 636.93
  C 491.25 634.75 486.53 632.37 481.77 629.78
  C 462.90 619.52 444.01 609.31 425.09 599.14
  C 421.60 597.26 419.08 595.65 418.99 591.17
  C 418.86 584.86 418.82 578.56 418.87 572.25
  C 418.92 565.67 424.47 561.99 430.43 565.28
  Z"
/>
<path fill="#49a234" d="
  M 519.91 425.50
  C 519.90 417.15 518.79 412.43 526.73 408.36
  C 553.10 394.87 581.07 380.87 621.35 359.05
  C 626.10 356.48 629.51 355.25 634.05 358.15
  C 638.17 360.78 640.90 363.58 641.00 368.58
  C 641.12 374.99 641.08 380.30 640.89 384.51
  C 640.79 386.51 639.57 387.05 638.01 387.89
  C 611.46 402.20 584.76 416.23 557.93 430.00
  C 555.82 431.08 553.04 432.07 553.02 435.00
  C 552.81 484.25 552.73 533.50 552.77 582.75
  C 552.78 586.16 555.54 586.67 558.24 585.21
  C 574.70 576.32 587.88 569.45 597.79 564.59
  C 599.85 563.57 603.87 566.05 605.51 567.54
  C 605.77 567.77 605.92 568.05 605.97 568.40
  C 606.81 574.70 606.26 582.08 606.19 588.49
  C 606.13 594.06 605.00 595.99 599.96 598.72
  C 578.07 610.61 556.21 622.56 534.40 634.59
  C 532.38 635.71 529.56 637.54 527.24 636.25
  C 524.56 634.75 520.81 632.89 520.17 629.67
  C 520.11 629.35 520.08 627.73 520.07 624.82
  C 520.02 558.38 519.97 491.94 519.91 425.50
  Z"
/>
<path fill="#eb3323" d="
  M 644.74 513.08
  C 635.40 508.89 625.58 503.99 617.02 498.56
  C 616.30 498.10 615.86 497.32 615.84 496.48
  C 615.63 488.29 615.57 479.96 615.68 471.50
  C 615.72 468.67 619.45 465.79 622.65 464.13
  C 630.08 460.29 637.20 456.63 644.00 453.15
  C 645.18 452.54 645.77 452.90 645.77 454.23
  L 645.73 512.44
  C 645.73 512.95 645.20 513.29 644.74 513.08
  Z"
/>
<path fill="#f58b11" d="
  M 359.51 569.28
  C 352.63 565.72 345.66 562.39 338.86 558.65
  C 336.22 557.20 337.20 548.03 337.21 545.29
  C 337.26 521.40 337.31 497.51 337.38 473.62
  C 337.39 471.66 338.31 470.21 340.14 469.28
  C 344.88 466.87 349.61 464.42 354.32 461.95
  C 356.79 460.65 359.98 458.45 363.03 457.10
  C 363.74 456.78 364.17 457.00 364.33 457.76
  C 364.76 459.83 364.50 461.98 364.50 463.72
  C 364.48 498.83 364.46 534.08 364.43 569.47
  C 364.43 570.14 363.84 570.66 363.17 570.56
  C 362.06 570.39 360.84 569.97 359.51 569.28
  Z"
/>
<path fill="#1391d3" d="
  M 680.08 467.64
  C 683.24 469.28 687.65 470.91 687.61 475.12
  C 687.38 500.73 687.28 526.35 687.33 551.96
  C 687.34 556.18 686.26 557.43 682.65 559.58
  C 675.99 563.56 669.03 567.16 661.76 570.39
  C 661.21 570.64 660.58 570.23 660.58 569.62
  L 660.80 458.46
  C 660.80 458.02 661.27 457.74 661.66 457.95
  C 667.75 461.22 673.89 464.45 680.08 467.64
  Z"
/>
<path fill="#191718" d="
  M 502.71 715.54
  C 503.19 715.38 503.60 715.08 503.89 714.66
  C 507.95 708.71 497.25 707.42 494.49 706.23
  C 486.25 702.66 488.88 691.91 497.01 690.53
  C 503.04 689.51 509.61 691.37 510.59 698.35
  C 510.62 698.55 510.46 698.73 510.26 698.74
  L 504.52 698.77
  C 504.29 698.77 504.13 698.66 504.06 698.44
  C 502.03 691.94 492.06 696.73 496.95 701.08
  C 497.68 701.73 498.55 702.18 499.56 702.42
  C 503.97 703.46 509.26 704.70 510.67 709.78
  C 514.30 722.81 489.75 724.72 489.52 712.51
  C 489.51 712.17 489.68 712.00 490.01 712.00
  L 495.02 712.00
  C 495.35 712.00 495.58 712.15 495.71 712.45
  C 497.06 715.55 499.40 716.58 502.71 715.54
  Z"
/>
<path fill="#191718" d="
  M 684.65 715.48
  C 685.10 715.32 685.48 715.02 685.74 714.62
  C 689.65 708.67 679.02 707.43 676.24 706.20
  C 668.27 702.69 670.55 692.19 678.44 690.63
  C 684.18 689.50 691.07 691.02 692.34 697.80
  C 692.46 698.43 692.20 698.75 691.56 698.75
  L 686.74 698.75
  C 686.09 698.75 685.71 698.43 685.60 697.80
  C 685.45 696.97 684.84 696.30 683.77 695.77
  C 678.68 693.26 674.55 699.97 680.29 701.88
  C 685.50 703.60 692.38 704.62 692.76 711.65
  C 693.38 723.07 672.30 724.15 671.23 712.56
  C 671.20 712.19 671.37 712.00 671.74 712.00
  L 677.21 712.00
  C 677.53 712.00 677.71 712.16 677.74 712.49
  C 678.06 715.72 682.19 716.39 684.65 715.48
  Z"
/>
<path fill="#191718" d="
  M 340.20 702.17
  C 340.20 701.33 340.04 701.30 339.72 702.08
  L 332.37 720.04
  C 332.24 720.35 332.02 720.50 331.69 720.50
  L 328.10 720.50
  C 327.81 720.49 327.62 720.36 327.51 720.09
  L 320.12 702.16
  C 319.81 701.41 319.66 701.44 319.66 702.25
  L 319.66 720.13
  C 319.66 720.33 319.50 720.49 319.30 720.49
  L 313.97 720.50
  C 313.79 720.50 313.70 720.41 313.70 720.22
  L 313.70 691.28
  C 313.70 690.93 313.87 690.75 314.22 690.75
  L 319.95 690.75
  C 320.29 690.75 320.53 690.91 320.66 691.22
  L 329.77 712.40
  C 329.83 712.54 330.03 712.54 330.09 712.40
  L 339.17 691.27
  C 339.30 690.95 339.61 690.75 339.95 690.75
  L 345.46 690.75
  C 345.93 690.75 346.16 690.99 346.16 691.46
  L 346.16 720.16
  C 346.16 720.39 346.05 720.50 345.82 720.50
  L 340.59 720.50
  C 340.32 720.50 340.19 720.36 340.19 720.09
  L 340.20 702.17
  Z"
/>
<path fill="#191718" d="
  M 370.08 714.75
  L 358.66 714.74
  C 358.53 714.74 358.41 714.82 358.37 714.95
  L 356.51 720.28
  C 356.47 720.41 356.35 720.49 356.22 720.49
  L 350.62 720.50
  C 350.41 720.50 350.26 720.29 350.33 720.08
  L 360.83 690.95
  C 360.87 690.83 360.99 690.75 361.12 690.75
  L 367.63 690.75
  C 367.76 690.75 367.88 690.83 367.92 690.96
  L 378.39 720.08
  C 378.46 720.28 378.31 720.49 378.10 720.49
  L 372.49 720.51
  C 372.36 720.51 372.24 720.43 372.20 720.30
  L 370.37 714.96
  C 370.33 714.83 370.21 714.75 370.08 714.75
  Z
  M 360.19 709.58
  C 360.12 709.79 360.28 710.01 360.50 710.01
  L 368.22 709.99
  C 368.44 709.99 368.59 709.78 368.52 709.57
  L 364.64 698.37
  C 364.54 698.08 364.13 698.08 364.03 698.37
  L 360.19 709.58
  Z"
/>
<path fill="#191718" d="
  M 394.91 695.88
  L 394.91 720.12
  C 394.91 720.33 394.74 720.50 394.53 720.50
  L 389.32 720.50
  C 389.11 720.50 388.94 720.33 388.94 720.12
  L 388.94 695.87
  C 388.94 695.66 388.77 695.49 388.56 695.49
  L 381.38 695.51
  C 381.17 695.51 381.00 695.34 381.00 695.13
  L 381.00 691.13
  C 381.00 690.92 381.17 690.75 381.38 690.75
  L 402.44 690.75
  C 402.65 690.75 402.82 690.92 402.82 691.13
  L 402.79 695.12
  C 402.79 695.33 402.62 695.50 402.41 695.50
  L 395.29 695.50
  C 395.08 695.50 394.91 695.67 394.91 695.88
  Z"
/>
<path fill="#191718" d="
  M 425.55 707.75
  L 413.54 707.74
  C 413.34 707.74 413.17 707.91 413.17 708.11
  L 413.17 720.13
  C 413.17 720.33 413.00 720.50 412.80 720.50
  L 407.56 720.50
  C 407.36 720.50 407.19 720.33 407.19 720.13
  L 407.19 691.12
  C 407.19 690.92 407.36 690.75 407.56 690.75
  L 412.80 690.76
  C 413.00 690.76 413.17 690.93 413.17 691.13
  L 413.16 702.63
  C 413.16 702.83 413.33 703.00 413.53 703.00
  L 425.56 703.00
  C 425.76 703.00 425.93 702.83 425.93 702.63
  L 425.92 691.12
  C 425.92 690.92 426.09 690.75 426.29 690.75
  L 431.51 690.76
  C 431.71 690.76 431.88 690.93 431.88 691.13
  L 431.88 720.13
  C 431.88 720.33 431.71 720.50 431.51 720.50
  L 426.30 720.50
  C 426.10 720.50 425.93 720.33 425.93 720.13
  L 425.92 708.12
  C 425.92 707.92 425.75 707.75 425.55 707.75
  Z"
/>
<path fill="#191718" d="
  M 443.74 695.82
  L 443.74 702.68
  C 443.74 702.86 443.88 703.00 444.06 703.00
  L 453.44 703.00
  C 453.62 703.00 453.76 703.14 453.76 703.32
  L 453.75 707.42
  C 453.75 707.60 453.61 707.74 453.43 707.74
  L 444.06 707.75
  C 443.88 707.75 443.74 707.89 443.74 708.07
  L 443.75 715.43
  C 443.75 715.61 443.89 715.75 444.07 715.75
  L 454.70 715.76
  C 454.88 715.76 455.02 715.90 455.02 716.08
  L 455.02 720.18
  C 455.02 720.36 454.88 720.50 454.70 720.50
  L 438.07 720.50
  C 437.89 720.50 437.75 720.36 437.75 720.18
  L 437.75 691.07
  C 437.75 690.89 437.89 690.75 438.07 690.75
  L 454.70 690.75
  C 454.88 690.75 455.02 690.89 455.02 691.07
  L 455.02 695.18
  C 455.02 695.36 454.88 695.50 454.70 695.50
  L 444.06 695.50
  C 443.88 695.50 443.74 695.64 443.74 695.82
  Z"
/>
<path fill="#191718" d="
  M 466.34 709.00
  C 466.36 713.13 468.33 715.38 472.37 715.33
  C 476.53 715.28 478.42 713.08 478.43 708.74
  C 478.46 702.73 478.46 696.84 478.45 691.09
  C 478.45 690.87 478.56 690.76 478.78 690.75
  L 484.03 690.75
  C 484.30 690.75 484.43 690.88 484.43 691.15
  C 484.48 697.28 484.47 703.53 484.40 709.89
  C 484.26 724.06 460.38 725.19 460.36 708.85
  C 460.35 702.84 460.35 696.94 460.37 691.16
  C 460.37 690.89 460.51 690.75 460.78 690.75
  L 465.95 690.76
  C 466.20 690.76 466.33 690.89 466.33 691.14
  C 466.31 696.93 466.31 702.89 466.34 709.00
  Z"
/>
<path fill="#191718" d="
  M 552.80 702.43
  C 552.80 701.48 552.62 701.44 552.26 702.33
  L 545.03 720.00
  C 544.90 720.31 544.60 720.52 544.27 720.51
  L 540.76 720.50
  C 540.47 720.50 540.26 720.36 540.15 720.09
  L 532.77 702.19
  C 532.43 701.37 532.26 701.40 532.26 702.29
  L 532.27 719.99
  C 532.27 720.33 532.10 720.50 531.76 720.50
  L 526.77 720.50
  C 526.50 720.50 526.29 720.29 526.29 720.02
  L 526.29 691.00
  C 526.29 690.87 526.40 690.76 526.53 690.76
  L 532.65 690.75
  C 532.95 690.75 533.16 690.89 533.27 691.16
  L 542.34 712.22
  C 542.43 712.42 542.71 712.42 542.80 712.22
  L 551.80 691.33
  C 551.95 690.97 552.30 690.74 552.69 690.74
  L 558.27 690.76
  C 558.60 690.76 558.77 690.93 558.77 691.27
  L 558.77 719.99
  C 558.77 720.33 558.60 720.50 558.26 720.50
  L 553.27 720.50
  C 552.96 720.50 552.80 720.34 552.80 720.02
  L 552.80 702.43
  Z"
/>
<path fill="#191718" d="
  M 570.65 708.18
  L 570.64 715.32
  C 570.64 715.56 570.83 715.75 571.07 715.75
  L 581.54 715.75
  C 581.78 715.75 581.97 715.94 581.97 716.18
  L 581.97 720.07
  C 581.97 720.31 581.78 720.50 581.54 720.50
  L 565.11 720.50
  C 564.87 720.50 564.68 720.31 564.68 720.07
  L 564.68 691.18
  C 564.68 690.94 564.87 690.75 565.11 690.75
  L 581.54 690.75
  C 581.78 690.75 581.97 690.94 581.97 691.18
  L 581.97 695.07
  C 581.97 695.31 581.78 695.50 581.54 695.50
  L 571.07 695.50
  C 570.83 695.50 570.64 695.69 570.64 695.93
  L 570.64 702.57
  C 570.64 702.81 570.83 703.00 571.07 703.00
  L 580.27 703.01
  C 580.51 703.01 580.70 703.20 580.70 703.44
  L 580.66 707.31
  C 580.66 707.55 580.47 707.74 580.23 707.74
  L 571.08 707.75
  C 570.84 707.75 570.65 707.94 570.65 708.18
  Z"
/>
<path fill="#191718" d="
  M 592.98 720.50
  L 587.67 720.50
  C 587.49 720.50 587.34 720.35 587.34 720.17
  L 587.34 691.08
  C 587.34 690.90 587.49 690.75 587.67 690.75
  L 593.15 690.75
  C 593.26 690.75 593.37 690.81 593.43 690.90
  L 606.23 710.32
  C 606.41 710.59 606.84 710.47 606.84 710.14
  L 606.84 691.08
  C 606.84 690.90 606.99 690.75 607.17 690.75
  L 612.48 690.75
  C 612.66 690.75 612.81 690.90 612.81 691.08
  L 612.81 720.17
  C 612.81 720.35 612.66 720.50 612.48 720.50
  L 607.03 720.50
  C 606.92 720.50 606.81 720.44 606.75 720.35
  L 593.91 700.86
  C 593.73 700.59 593.30 700.71 593.30 701.04
  L 593.31 720.17
  C 593.31 720.35 593.16 720.50 592.98 720.50
  Z"
/>
<path fill="#191718" d="
  M 618.73 691.06
  C 618.73 690.89 618.86 690.76 619.03 690.76
  L 630.18 690.76
  C 638.24 690.76 644.77 697.04 644.77 704.79
  L 644.77 706.47
  C 644.77 714.22 638.24 720.50 630.18 720.50
  L 619.03 720.50
  C 618.86 720.50 618.73 720.37 618.73 720.20
  L 618.73 691.06
  Z
  M 624.72 696.02
  L 624.66 715.18
  C 624.66 715.32 624.78 715.45 624.93 715.45
  L 629.32 715.46
  C 634.48 715.48 638.69 711.51 638.71 706.60
  L 638.71 704.68
  C 638.73 699.77 634.55 695.78 629.38 695.76
  L 624.99 695.75
  C 624.85 695.75 624.72 695.87 624.72 696.02
  Z"
/>
<path fill="#191718" d="
  M 655.26 708.13
  L 655.25 715.37
  C 655.25 715.58 655.42 715.75 655.63 715.75
  L 666.18 715.76
  C 666.39 715.76 666.56 715.93 666.56 716.14
  L 666.56 720.11
  C 666.56 720.32 666.39 720.49 666.18 720.49
  L 649.66 720.50
  C 649.45 720.50 649.28 720.33 649.28 720.12
  L 649.27 691.13
  C 649.27 690.92 649.44 690.75 649.65 690.75
  L 666.18 690.75
  C 666.39 690.75 666.56 690.92 666.56 691.13
  L 666.56 695.12
  C 666.56 695.33 666.39 695.50 666.18 695.50
  L 655.64 695.50
  C 655.43 695.50 655.26 695.67 655.26 695.88
  L 655.25 702.62
  C 655.25 702.83 655.42 703.00 655.63 703.00
  L 664.89 703.00
  C 665.10 703.00 665.27 703.17 665.27 703.38
  L 665.26 707.37
  C 665.26 707.58 665.09 707.75 664.88 707.75
  L 655.64 707.75
  C 655.43 707.75 655.26 707.92 655.26 708.13
  Z"
/>
<path fill="#191718" d="
  M 426.84 743.31
  C 425.03 746.61 429.23 748.04 431.75 748.45
  C 435.93 749.12 440.39 753.52 437.36 758.31
  C 435.31 761.55 431.92 762.62 427.19 761.53
  C 423.74 760.74 421.86 758.73 421.56 755.51
  C 421.55 755.35 421.62 755.27 421.78 755.27
  L 426.21 755.23
  C 426.38 755.23 426.48 755.31 426.52 755.47
  C 427.28 758.81 432.03 759.32 433.32 756.57
  C 433.87 755.40 433.44 754.01 432.34 753.34
  C 428.56 751.05 422.51 751.54 421.73 746.04
  C 420.35 736.14 437.30 735.63 437.95 744.49
  C 437.98 744.82 437.82 744.99 437.49 745.00
  L 433.70 745.00
  C 433.33 745.00 433.06 744.84 432.89 744.51
  C 431.74 742.32 429.93 741.73 427.45 742.76
  C 427.19 742.87 426.97 743.06 426.84 743.31
  Z"
/>
<path fill="#191718" d="
  M 501.83 760.64
  C 489.96 766.13 479.37 753.73 486.60 742.97
  C 491.44 735.76 503.49 736.92 506.97 745.46
  C 507.02 745.59 506.92 745.74 506.78 745.74
  L 502.02 745.75
  C 501.83 745.75 501.68 745.67 501.58 745.50
  C 498.19 739.81 490.26 742.69 489.29 748.76
  C 488.10 756.21 496.39 761.81 501.49 754.99
  C 501.73 754.67 502.05 754.51 502.44 754.51
  L 506.46 754.49
  C 506.81 754.49 506.94 754.66 506.83 754.99
  C 505.99 757.60 504.32 759.49 501.83 760.64
  Z"
/>
<path fill="#191718" d="
  M 662.21 750.15
  C 662.21 756.76 656.85 762.12 650.24 762.12
  C 643.63 762.12 638.27 756.76 638.27 750.15
  C 638.27 743.54 643.63 738.18 650.24 738.18
  C 656.85 738.18 662.21 743.54 662.21 750.15
  Z
  M 650.2129 758.0100
  C 654.18 758.02 657.40 754.56 657.4200 750.2651
  C 657.43 745.97 654.23 742.48 650.2671 742.4700
  C 646.30 742.46 643.08 745.92 643.0600 750.2149
  C 643.05 754.51 646.25 758.00 650.2129 758.0100
  Z"
/>
<path fill="#191718" d="
  M 347.30 752.38
  L 347.34 761.61
  C 347.34 761.82 347.17 761.99 346.96 761.99
  L 343.07 761.99
  C 342.86 761.99 342.69 761.82 342.69 761.61
  L 342.70 738.88
  C 342.70 738.67 342.87 738.50 343.08 738.50
  L 356.64 738.50
  C 356.85 738.50 357.02 738.67 357.02 738.88
  L 357.02 742.12
  C 357.02 742.33 356.85 742.50 356.64 742.50
  L 347.70 742.49
  C 347.49 742.49 347.32 742.66 347.32 742.87
  L 347.32 747.87
  C 347.32 748.08 347.49 748.25 347.70 748.25
  L 354.38 748.25
  C 354.58 748.25 354.75 748.42 354.76 748.62
  L 354.79 751.61
  C 354.80 751.82 354.63 751.99 354.42 751.99
  L 347.68 752.00
  C 347.47 752.00 347.30 752.17 347.30 752.38
  Z"
/>
<path fill="#191718" d="
  M 368.47 757.99
  L 369.78 758.01
  C 372.85 758.05 374.38 756.54 374.38 753.47
  L 374.38 738.86
  C 374.38 738.67 374.54 738.51 374.73 738.51
  L 378.72 738.50
  C 378.93 738.50 379.03 738.60 379.04 738.80
  C 379.10 743.29 379.09 747.85 379.01 752.49
  C 378.97 754.63 378.69 756.24 378.16 757.32
  C 375.82 762.07 369.07 762.97 364.79 760.92
  C 361.17 759.19 360.33 756.13 360.29 752.08
  C 360.24 747.61 360.24 743.23 360.28 738.94
  C 360.28 738.65 360.42 738.51 360.71 738.51
  L 364.48 738.50
  C 364.79 738.50 364.95 738.66 364.95 738.98
  L 364.98 754.47
  C 364.99 756.40 366.54 757.96 368.47 757.99
  Z"
/>
<path fill="#191718" d="
  M 388.62 758.25
  L 395.49 758.25
  C 395.70 758.25 395.86 758.41 395.87 758.62
  L 395.96 761.60
  C 395.96 761.81 395.79 761.99 395.58 761.99
  L 383.93 762.00
  C 383.72 762.00 383.55 761.83 383.55 761.62
  L 383.55 738.88
  C 383.55 738.67 383.72 738.50 383.93 738.50
  L 387.86 738.50
  C 388.07 738.50 388.24 738.67 388.24 738.88
  L 388.24 757.87
  C 388.24 758.08 388.41 758.25 388.62 758.25
  Z"
/>
<path fill="#191718" d="
  M 403.89 758.25
  L 410.83 758.25
  C 411.04 758.25 411.21 758.42 411.21 758.63
  L 411.21 761.61
  C 411.21 761.82 411.04 761.99 410.83 761.99
  L 399.24 762.00
  C 399.03 762.00 398.86 761.83 398.86 761.62
  L 398.86 738.88
  C 398.86 738.67 399.03 738.50 399.24 738.50
  L 403.13 738.50
  C 403.34 738.50 403.51 738.67 403.51 738.88
  L 403.51 757.87
  C 403.51 758.08 403.68 758.25 403.89 758.25
  Z"
/>
<path fill="#191718" d="
  M 452.02 742.87
  L 452.02 761.61
  C 452.02 761.82 451.84 762.00 451.63 762.00
  L 447.75 761.99
  C 447.53 761.99 447.36 761.82 447.36 761.60
  L 447.37 742.88
  C 447.37 742.67 447.19 742.49 446.98 742.49
  L 441.57 742.50
  C 441.35 742.50 441.18 742.33 441.18 742.11
  L 441.17 738.89
  C 441.17 738.68 441.35 738.50 441.56 738.50
  L 457.84 738.50
  C 458.06 738.50 458.23 738.67 458.23 738.89
  L 458.24 742.12
  C 458.24 742.33 458.06 742.51 457.85 742.51
  L 452.41 742.48
  C 452.20 742.48 452.02 742.66 452.02 742.87
  Z"
/>
<path fill="#191718" d="
  M 466.53 757.75
  L 465.18 761.75
  C 465.12 761.90 464.98 762.00 464.82 762.00
  L 460.72 761.99
  C 460.47 761.99 460.29 761.74 460.38 761.50
  L 468.48 738.76
  C 468.54 738.61 468.67 738.51 468.83 738.51
  L 473.73 738.50
  C 473.89 738.50 474.03 738.60 474.08 738.75
  L 482.19 761.50
  C 482.28 761.75 482.10 762.00 481.84 762.00
  L 477.65 761.98
  C 477.49 761.98 477.35 761.88 477.30 761.73
  L 475.99 757.75
  C 475.94 757.59 475.80 757.49 475.64 757.49
  L 466.88 757.50
  C 466.72 757.50 466.58 757.60 466.53 757.75
  Z
  M 468.04 753.33
  C 467.97 753.54 468.12 753.75 468.34 753.75
  L 474.18 753.75
  C 474.40 753.75 474.55 753.54 474.48 753.33
  L 471.56 744.87
  C 471.46 744.58 471.06 744.58 470.96 744.87
  L 468.04 753.33
  Z"
/>
<path fill="#191718" d="
  M 515.74 752.37
  L 515.76 761.68
  C 515.76 761.85 515.62 761.99 515.45 761.99
  L 511.36 761.99
  C 511.19 761.99 511.05 761.85 511.05 761.68
  L 511.06 738.81
  C 511.06 738.64 511.20 738.50 511.37 738.50
  L 515.44 738.51
  C 515.61 738.51 515.75 738.65 515.75 738.82
  L 515.74 748.13
  C 515.74 748.42 516.11 748.55 516.29 748.33
  L 524.15 738.61
  C 524.21 738.53 524.29 738.49 524.39 738.49
  L 529.16 738.51
  C 529.42 738.51 529.56 738.81 529.40 739.01
  L 520.39 750.07
  C 520.30 750.19 520.30 750.35 520.40 750.47
  L 529.70 761.46
  C 529.87 761.66 529.73 761.97 529.47 761.97
  L 524.38 762.01
  C 524.29 762.01 524.20 761.97 524.14 761.89
  L 516.29 752.18
  C 516.11 751.95 515.74 752.08 515.74 752.37
  Z"
/>
<path fill="#191718" d="
  M 541.15 738.77
  C 541.15 738.59 541.29 738.45 541.47 738.45
  L 550.04 738.49
  C 556.40 738.53 561.52 743.64 561.49 749.90
  L 561.49 750.70
  C 561.45 756.97 556.28 762.03 549.92 761.99
  L 541.35 761.95
  C 541.17 761.95 541.03 761.80 541.03 761.63
  L 541.15 738.77
  Z
  M 545.77 742.88
  L 545.69 757.62
  C 545.69 757.83 545.86 758.00 546.07 758.00
  L 549.52 758.02
  C 553.49 758.04 556.73 754.88 556.75 750.95
  L 556.75 749.67
  C 556.77 745.74 553.57 742.54 549.60 742.52
  L 546.15 742.50
  C 545.94 742.50 545.77 742.67 545.77 742.88
  Z"
/>
<path fill="#191718" d="
  M 569.69 742.88
  L 569.69 747.87
  C 569.69 748.08 569.86 748.25 570.07 748.25
  L 577.11 748.25
  C 577.32 748.25 577.49 748.42 577.49 748.63
  L 577.52 751.62
  C 577.52 751.83 577.35 752.00 577.14 752.00
  L 570.05 752.00
  C 569.84 752.00 569.67 752.17 569.67 752.38
  L 569.68 757.62
  C 569.68 757.83 569.85 758.00 570.06 758.00
  L 578.12 758.00
  C 578.33 758.00 578.50 758.17 578.50 758.38
  L 578.51 761.62
  C 578.51 761.83 578.34 762.00 578.13 762.00
  L 565.38 762.00
  C 565.17 762.00 565.00 761.83 565.00 761.62
  L 565.00 738.88
  C 565.00 738.67 565.17 738.50 565.38 738.50
  L 578.12 738.50
  C 578.33 738.50 578.50 738.67 578.50 738.88
  L 578.49 742.11
  C 578.49 742.32 578.32 742.49 578.11 742.49
  L 570.07 742.50
  C 569.86 742.50 569.69 742.67 569.69 742.88
  Z"
/>
<path fill="#191718" d="
  M 592.61 756.17
  L 598.60 738.70
  C 598.64 738.57 598.76 738.49 598.89 738.49
  L 603.20 738.52
  C 603.41 738.52 603.56 738.73 603.49 738.93
  L 595.17 761.80
  C 595.13 761.92 595.01 762.00 594.88 762.00
  L 589.65 761.99
  C 589.52 761.99 589.40 761.91 589.36 761.79
  L 581.05 738.92
  C 580.98 738.71 581.13 738.50 581.34 738.50
  L 585.68 738.51
  C 585.81 738.51 585.93 738.59 585.97 738.72
  L 592.03 756.17
  C 592.12 756.45 592.52 756.45 592.61 756.17
  Z"
/>
<path fill="#191718" d="
  M 611.45 758.00
  L 619.58 758.01
  C 619.79 758.01 619.96 758.18 619.96 758.39
  L 619.97 761.61
  C 619.97 761.82 619.80 761.99 619.59 761.99
  L 606.83 762.00
  C 606.62 762.00 606.45 761.83 606.45 761.62
  L 606.45 738.88
  C 606.45 738.67 606.62 738.50 606.83 738.50
  L 619.57 738.50
  C 619.78 738.50 619.95 738.67 619.95 738.88
  L 619.95 742.13
  C 619.95 742.34 619.78 742.51 619.57 742.51
  L 611.46 742.49
  C 611.25 742.49 611.08 742.66 611.08 742.87
  L 611.07 747.87
  C 611.07 748.08 611.24 748.25 611.45 748.25
  L 618.56 748.24
  C 618.76 748.24 618.93 748.41 618.94 748.61
  L 618.98 751.61
  C 618.99 751.83 618.82 752.00 618.60 752.00
  L 611.44 752.00
  C 611.23 752.00 611.06 752.17 611.06 752.38
  L 611.07 757.62
  C 611.07 757.83 611.24 758.00 611.45 758.00
  Z"
/>
<path fill="#191718" d="
  M 629.14 758.25
  L 636.16 758.25
  C 636.34 758.25 636.49 758.40 636.49 758.58
  L 636.52 761.67
  C 636.52 761.85 636.37 762.00 636.19 762.00
  L 624.50 761.99
  C 624.32 761.99 624.17 761.84 624.17 761.66
  L 624.18 738.83
  C 624.18 738.65 624.33 738.50 624.51 738.50
  L 628.48 738.51
  C 628.66 738.51 628.81 738.66 628.81 738.84
  L 628.81 757.92
  C 628.81 758.10 628.96 758.25 629.14 758.25
  Z"
/>
<path fill="#191718" d="
  M 670.27 753.52
  L 670.27 761.49
  C 670.27 761.83 670.10 762.00 669.76 762.00
  L 665.97 761.99
  C 665.74 761.99 665.62 761.87 665.62 761.64
  L 665.63 739.04
  C 665.63 738.75 665.77 738.61 666.06 738.60
  C 672.35 738.32 680.30 737.40 682.15 743.49
  C 682.85 745.77 682.55 747.87 681.25 749.80
  C 678.79 753.44 674.69 752.89 670.75 753.02
  C 670.43 753.03 670.27 753.20 670.27 753.52
  Z
  M 670.25 742.92
  L 670.27 748.82
  C 670.27 749.07 670.47 749.26 670.71 749.26
  L 674.27 749.25
  C 676.20 749.24 677.77 747.81 677.76 746.06
  L 677.76 745.64
  C 677.75 743.88 676.18 742.46 674.25 742.47
  L 670.69 742.48
  C 670.45 742.48 670.25 742.68 670.25 742.92
  Z"
/>
</svg>
